<svg width="30" height="30" viewBox="0 0 30 30" fill="none" xmlns="http://www.w3.org/2000/svg">
<g id="school">
<path id="Vector" d="M0 13.5V26.25C0 26.6644 0.335625 27 0.75 27H4.5V12H1.5C0.671719 12 0 12.6717 0 13.5ZM16.875 11.25H15.75V9.375C15.75 9.16782 15.5822 9 15.375 9H14.625C14.4178 9 14.25 9.16782 14.25 9.375V12.375C14.25 12.5822 14.4178 12.75 14.625 12.75H16.875C17.0822 12.75 17.25 12.5822 17.25 12.375V11.625C17.25 11.4178 17.0822 11.25 16.875 11.25ZM23.332 8.25188L15.832 3.25172C15.5856 3.08758 15.2961 3 15 3C14.7039 3 14.4144 3.08758 14.168 3.25172L6.66797 8.25188C6.46254 8.38884 6.29409 8.57438 6.17757 8.79205C6.06105 9.00973 6.00005 9.25279 6 9.49969V27H12V20.25C12 19.8356 12.3356 19.5 12.75 19.5H17.25C17.6644 19.5 18 19.8356 18 20.25V27H24V9.50016C24 8.9986 23.7492 8.52985 23.332 8.25188ZM15 15C12.9291 15 11.25 13.3209 11.25 11.25C11.25 9.17907 12.9291 7.5 15 7.5C17.0709 7.5 18.75 9.17907 18.75 11.25C18.75 13.3209 17.0709 15 15 15ZM28.5 12H25.5V27H29.25C29.6644 27 30 26.6644 30 26.25V13.5C30 12.6717 29.3283 12 28.5 12Z" fill="black" fill-opacity="0.7"/>
</g>
</svg>
