<svg width="30" height="30" viewBox="0 0 30 30" fill="none" xmlns="http://www.w3.org/2000/svg">
<g id="github" clip-path="url(#clip0_1_47)">
<path id="Vector" d="M10.1895 23.2852C10.1895 23.4024 10.0547 23.4961 9.88477 23.4961C9.69141 23.5137 9.55664 23.42 9.55664 23.2852C9.55664 23.168 9.69141 23.0742 9.86133 23.0742C10.0371 23.0567 10.1895 23.1504 10.1895 23.2852ZM8.36719 23.0215C8.32617 23.1387 8.44336 23.2735 8.61914 23.3086C8.77148 23.3672 8.94727 23.3086 8.98242 23.1914C9.01758 23.0742 8.90625 22.9395 8.73047 22.8867C8.57812 22.8457 8.4082 22.9043 8.36719 23.0215ZM10.957 22.9219C10.7871 22.9629 10.6699 23.0742 10.6875 23.209C10.7051 23.3262 10.8574 23.4024 11.0332 23.3614C11.2031 23.3203 11.3203 23.209 11.3027 23.0918C11.2852 22.9805 11.127 22.9043 10.957 22.9219ZM14.8125 0.468781C6.68555 0.468781 0.46875 6.6387 0.46875 14.7657C0.46875 21.2637 4.55859 26.8242 10.4004 28.7813C11.1504 28.916 11.4141 28.4532 11.4141 28.0723C11.4141 27.709 11.3965 25.7051 11.3965 24.4746C11.3965 24.4746 7.29492 25.3535 6.43359 22.7285C6.43359 22.7285 5.76562 21.0235 4.80469 20.584C4.80469 20.584 3.46289 19.6641 4.89844 19.6817C4.89844 19.6817 6.35742 19.7989 7.16016 21.1934C8.44336 23.4551 10.5938 22.8047 11.4316 22.418C11.5664 21.4805 11.9473 20.8301 12.3691 20.4434C9.09375 20.0801 5.78906 19.6055 5.78906 13.9688C5.78906 12.3575 6.23438 11.5489 7.17188 10.5176C7.01953 10.1367 6.52148 8.56644 7.32422 6.53909C8.54883 6.15823 11.3672 8.12112 11.3672 8.12112C12.5391 7.793 13.7988 7.62308 15.0469 7.62308C16.2949 7.62308 17.5547 7.793 18.7266 8.12112C18.7266 8.12112 21.5449 6.15237 22.7695 6.53909C23.5723 8.5723 23.0742 10.1367 22.9219 10.5176C23.8594 11.5547 24.4336 12.3633 24.4336 13.9688C24.4336 19.6231 20.9824 20.0742 17.707 20.4434C18.2461 20.9063 18.7031 21.7852 18.7031 23.1621C18.7031 25.1367 18.6855 27.5801 18.6855 28.0606C18.6855 28.4414 18.9551 28.9043 19.6992 28.7696C25.5586 26.8242 29.5312 21.2637 29.5312 14.7657C29.5312 6.6387 22.9395 0.468781 14.8125 0.468781ZM6.16406 20.6778C6.08789 20.7364 6.10547 20.8711 6.20508 20.9825C6.29883 21.0762 6.43359 21.1172 6.50977 21.041C6.58594 20.9825 6.56836 20.8477 6.46875 20.7364C6.375 20.6426 6.24023 20.6016 6.16406 20.6778ZM5.53125 20.2032C5.49023 20.2793 5.54883 20.3731 5.66602 20.4317C5.75977 20.4903 5.87695 20.4727 5.91797 20.3907C5.95898 20.3145 5.90039 20.2207 5.7832 20.1621C5.66602 20.127 5.57227 20.1446 5.53125 20.2032ZM7.42969 22.2891C7.33594 22.3653 7.37109 22.541 7.50586 22.6524C7.64062 22.7871 7.81055 22.8047 7.88672 22.711C7.96289 22.6348 7.92773 22.459 7.81055 22.3477C7.68164 22.2129 7.50586 22.1953 7.42969 22.2891ZM6.76172 21.4278C6.66797 21.4864 6.66797 21.6387 6.76172 21.7735C6.85547 21.9082 7.01367 21.9668 7.08984 21.9082C7.18359 21.8321 7.18359 21.6797 7.08984 21.545C7.00781 21.4102 6.85547 21.3516 6.76172 21.4278Z" fill="black"/>
</g>
<defs>
<clipPath id="clip0_1_47">
<rect width="30" height="30" fill="white"/>
</clipPath>
</defs>
</svg>
