<svg width="30" height="30" viewBox="0 0 30 30" fill="none" xmlns="http://www.w3.org/2000/svg">
<g id="envelope">
<path id="Vector" d="M29.4316 11.1797C29.6602 10.9981 30 11.168 30 11.4551V23.4375C30 24.9903 28.7402 26.25 27.1875 26.25H2.8125C1.25977 26.25 0 24.9903 0 23.4375V11.461C0 11.168 0.333984 11.0039 0.568359 11.1856C1.88086 12.2051 3.62109 13.5 9.59766 17.8418C10.834 18.7442 12.9199 20.6426 15 20.6309C17.0918 20.6485 19.2188 18.709 20.4082 17.8418C26.3848 13.5 28.1191 12.1992 29.4316 11.1797ZM15 18.75C16.3594 18.7735 18.3164 17.0391 19.3008 16.3242C27.0762 10.6817 27.668 10.1895 29.4609 8.78323C29.8008 8.51956 30 8.10941 30 7.67581V6.56253C30 5.0098 28.7402 3.75003 27.1875 3.75003H2.8125C1.25977 3.75003 0 5.0098 0 6.56253V7.67581C0 8.10941 0.199219 8.5137 0.539062 8.78323C2.33203 10.1836 2.92383 10.6817 10.6992 16.3242C11.6836 17.0391 13.6406 18.7735 15 18.75Z" fill="black"/>
</g>
</svg>
