<svg width="100" height="62" viewBox="0 0 100 62" fill="none" xmlns="http://www.w3.org/2000/svg">
<g id="Tailwind_CSS_Logo 1">
<g id="Clip path group">
<mask id="mask0_371_128" style="mask-type:luminance" maskUnits="userSpaceOnUse" x="0" y="0" width="100" height="60">
<g id="prefix__clip0">
<path id="Vector" d="M0 0H100V60H0V0Z" fill="white"/>
</g>
</mask>
<g mask="url(#mask0_371_128)">
<g id="Group">
<path id="Vector_2" fill-rule="evenodd" clip-rule="evenodd" d="M50 0C36.6667 0 28.3333 6.66667 25 20C30 13.3333 35.8333 10.8333 42.5 12.5C46.3037 13.45 49.0222 16.2111 52.0315 19.2648C56.9333 24.2407 62.6074 30 75 30C88.3333 30 96.6667 23.3333 100 10C95 16.6667 89.1667 19.1667 82.5 17.5C78.6963 16.55 75.9778 13.7889 72.9685 10.7352C68.0667 5.75926 62.3926 0 50 0ZM25 30C11.6667 30 3.33333 36.6667 0 50C5 43.3333 10.8333 40.8333 17.5 42.5C21.3037 43.4519 24.0222 46.2111 27.0315 49.2648C31.9333 54.2407 37.6074 60 50 60C63.3333 60 71.6667 53.3333 75 40C70 46.6667 64.1667 49.1667 57.5 47.5C53.6963 46.55 50.9778 43.7889 47.9685 40.7352C43.0667 35.7593 37.3926 30 25 30Z" fill="#38BDF8"/>
</g>
</g>
</g>
</g>
</svg>
