<svg width="100" height="100" viewBox="0 0 100 100" fill="none" xmlns="http://www.w3.org/2000/svg">
<g id="Git-Icon-1788C 1" clip-path="url(#clip0_371_143)">
<g id="Clip path group">
<mask id="mask0_371_143" style="mask-type:luminance" maskUnits="userSpaceOnUse" x="0" y="0" width="100" height="100">
<g id="a">
<path id="Vector" d="M0 0.122803H99.8772V100H0V0.122803Z" fill="white"/>
</g>
</mask>
<g mask="url(#mask0_371_143)">
<g id="Group">
<path id="Vector_2" d="M97.9957 45.6141L54.387 2.0087C53.7896 1.41094 53.0803 0.936744 52.2996 0.613217C51.5189 0.28969 50.682 0.123169 49.837 0.123169C48.9919 0.123169 48.1551 0.28969 47.3744 0.613217C46.5936 0.936744 45.8843 1.41094 45.287 2.0087L36.2348 11.0652L47.7196 22.55C49.0698 22.0914 50.5214 22.0198 51.9102 22.3433C53.299 22.6668 54.5696 23.3724 55.5783 24.3804C56.5925 25.3957 57.3005 26.676 57.6214 28.0748C57.9422 29.4736 57.8628 30.9344 57.3924 32.2902L68.4652 43.3598C69.8214 42.8888 71.2828 42.8094 72.682 43.1309C74.0812 43.4523 75.3615 44.1615 76.3761 45.1772C77.0868 45.8878 77.6506 46.7314 78.0352 47.6599C78.4199 48.5884 78.6179 49.5836 78.6179 50.5886C78.6179 51.5936 78.4199 52.5888 78.0352 53.5173C77.6506 54.4458 77.0868 55.2894 76.3761 56C74.9392 57.4354 72.9913 58.2416 70.9603 58.2416C68.9294 58.2416 66.9814 57.4354 65.5446 56C64.4772 54.9309 63.7499 53.5698 63.4544 52.0882C63.1588 50.6067 63.3082 49.0708 63.8837 47.6739L53.5576 37.3511V64.5217C54.6475 65.0601 55.5935 65.8504 56.3171 66.8272C57.0408 67.804 57.5213 68.9391 57.7189 70.1386C57.9165 71.3381 57.8255 72.5673 57.4535 73.7246C57.0814 74.8819 56.4389 75.9339 55.5793 76.7935C54.8688 77.5042 54.0251 78.068 53.0966 78.4526C52.1681 78.8373 51.173 79.0353 50.1679 79.0353C49.1629 79.0353 48.1677 78.8373 47.2392 78.4526C46.3107 78.068 45.4671 77.5042 44.7565 76.7935C44.0456 76.0829 43.4817 75.2392 43.097 74.3106C42.7122 73.382 42.5142 72.3867 42.5142 71.3815C42.5142 70.3764 42.7122 69.3811 43.097 68.4525C43.4817 67.5239 44.0456 66.6802 44.7565 65.9696C45.4726 65.252 46.3238 64.6835 47.2609 64.2967V36.8761C46.3276 36.4917 45.4795 35.9267 44.7653 35.2135C44.0511 34.5004 43.4848 33.6532 43.0989 32.7205C42.7131 31.7878 42.5153 30.7882 42.517 29.7788C42.5187 28.7695 42.7198 27.7705 43.1087 26.8391L31.7848 15.513L1.88043 45.4098C0.675386 46.6172 -0.00140381 48.2534 -0.00140381 49.9592C-0.00140381 51.6651 0.675386 53.3013 1.88043 54.5087L45.4913 98.1196C46.6987 99.3243 48.3346 100.001 50.0402 100.001C51.7458 100.001 53.3818 99.3243 54.5891 98.1196L97.9957 54.713C99.2007 53.5056 99.8775 51.8695 99.8775 50.1636C99.8775 48.4577 99.2007 46.8215 97.9957 45.6141Z" fill="#F03C2E"/>
</g>
</g>
</g>
</g>
<defs>
<clipPath id="clip0_371_143">
<rect width="100" height="100" fill="white"/>
</clipPath>
</defs>
</svg>
